<?xml version="1.0" encoding="utf-8"?>
<svg viewBox="0 0 295 53" xmlns="http://www.w3.org/2000/svg">
  <path d="M 29.756 18.948 C 29.962 17.646 29.691 16.631 28.944 15.903 C 28.196 15.175 26.964 14.811 25.248 14.811 C 24.111 14.811 23.127 14.959 22.296 15.255 C 21.465 15.551 20.795 15.956 20.288 16.471 C 19.781 16.986 19.439 17.575 19.262 18.238 C 19.103 18.783 19.093 19.262 19.232 19.676 C 19.371 20.091 19.636 20.455 20.025 20.768 C 20.414 21.082 20.911 21.357 21.515 21.594 C 21.883 21.738 22.285 21.872 22.72 21.994 L 9.695 21.994 C 9.62 21.043 9.728 19.992 10.02 18.842 C 10.569 16.593 11.665 14.622 13.306 12.929 C 14.947 11.236 16.963 9.917 19.353 8.97 C 21.744 8.023 24.318 7.549 27.076 7.549 C 29.893 7.549 32.222 8.026 34.062 8.979 C 35.901 9.932 37.181 11.266 37.902 12.982 C 38.622 14.699 38.712 16.687 38.172 18.948 Z M 30.923 24.488 C 32.14 25.139 33.106 25.915 33.823 26.814 C 34.346 27.47 34.729 28.199 34.974 29 L 18.016 29 L 17.649 28.909 C 14.68 28.187 12.492 27.018 11.084 25.403 C 10.7 24.963 10.395 24.48 10.167 23.955 L 29.804 23.955 C 30.197 24.122 30.57 24.299 30.923 24.488 Z M 34.951 33.863 C 34.761 34.61 34.519 35.322 34.226 36 L 24.639 36 C 24.716 35.935 24.79 35.867 24.862 35.798 C 25.453 35.23 25.847 34.579 26.042 33.845 C 26.201 33.159 26.135 32.57 25.843 32.079 C 25.593 31.659 25.169 31.286 24.572 30.961 L 35.287 30.961 C 35.313 31.856 35.201 32.823 34.951 33.863 Z M 31.736 39.776 C 30.178 41.421 28.216 42.682 25.849 43.558 C 23.482 44.434 20.783 44.872 17.753 44.872 C 14.711 44.872 12.173 44.416 10.139 43.504 C 8.106 42.593 6.693 41.208 5.902 39.35 C 5.716 38.914 5.571 38.451 5.466 37.961 L 33.173 37.961 C 32.751 38.605 32.273 39.21 31.736 39.776 Z M 5.724 32.301 L 14.14 32.301 C 13.919 33.472 13.989 34.449 14.351 35.23 C 14.481 35.511 14.644 35.768 14.841 36 L 5.261 36 C 5.252 34.877 5.406 33.644 5.724 32.301 Z M 38.769 15.184 L 40.549 8.046 L 71.284 8.046 L 69.504 15.184 L 58.478 15.184 L 56.78 21.994 L 48.115 21.994 L 49.813 15.184 Z M 51.191 44.41 L 42.526 44.41 L 44.134 37.961 L 52.799 37.961 Z M 99.63 26.228 C 99.391 27.187 99.116 28.111 98.806 29 L 89.779 29 C 90.11 28.14 90.399 27.216 90.645 26.228 C 90.844 25.428 90.995 24.671 91.098 23.955 L 100.109 23.955 C 99.984 24.689 99.825 25.447 99.63 26.228 Z M 86.963 42.741 C 83.981 44.185 80.862 44.907 77.607 44.907 C 74.34 44.907 71.58 44.179 69.327 42.723 C 67.525 41.558 66.174 39.971 65.276 37.961 L 93.429 37.961 C 91.516 39.987 89.36 41.58 86.963 42.741 Z M 64.917 26.228 C 65.112 25.447 65.33 24.689 65.572 23.955 L 74.565 23.955 C 74.31 24.671 74.083 25.428 73.884 26.228 C 73.638 27.216 73.466 28.14 73.368 29 L 64.359 29 C 64.492 28.111 64.678 27.187 64.917 26.228 Z M 69.753 16.054 C 71.98 13.273 74.581 11.16 77.557 9.715 C 80.533 8.271 83.655 7.549 86.922 7.549 C 90.177 7.549 92.936 8.271 95.197 9.715 C 97.459 11.16 99.013 13.273 99.858 16.054 C 100.387 17.795 100.555 19.775 100.362 21.994 L 91.258 21.994 C 91.266 21.364 91.226 20.775 91.138 20.227 C 90.877 18.593 90.226 17.356 89.187 16.516 C 88.148 15.675 86.752 15.255 85 15.255 C 83.26 15.255 81.658 15.675 80.194 16.516 C 78.73 17.356 77.46 18.593 76.383 20.227 C 76.022 20.775 75.689 21.364 75.382 21.994 L 66.295 21.994 C 67.207 19.775 68.36 17.795 69.753 16.054 Z M 73.391 32.23 C 73.652 33.863 74.306 35.1 75.351 35.941 C 75.376 35.961 75.401 35.981 75.426 36 L 64.58 36 C 64.175 34.492 64.031 32.813 64.148 30.961 L 73.276 30.961 C 73.288 31.406 73.327 31.829 73.391 32.23 Z M 84.344 35.941 C 85.803 35.1 87.07 33.863 88.146 32.23 C 88.41 31.829 88.659 31.406 88.894 30.961 L 98.04 30.961 C 97.234 32.813 96.254 34.492 95.1 36 L 84.24 36 C 84.275 35.981 84.309 35.961 84.344 35.941 Z M 96.11 44.41 L 97.718 37.961 L 106.507 37.961 L 104.899 44.41 Z M 105.177 8.046 L 120.198 8.046 C 122.921 8.046 125.152 8.534 126.891 9.511 C 128.63 10.488 129.811 11.885 130.436 13.702 C 131.06 15.519 131.062 17.67 130.442 20.156 C 130.283 20.793 130.095 21.406 129.878 21.994 L 120.615 21.994 C 120.922 21.458 121.162 20.845 121.334 20.156 C 121.614 19.031 121.615 18.099 121.338 17.359 C 121.061 16.619 120.52 16.063 119.713 15.69 C 118.906 15.317 117.846 15.131 116.532 15.131 L 112.199 15.131 L 110.488 21.994 L 101.699 21.994 Z M 127.191 26.574 C 126.381 27.499 125.472 28.308 124.465 29 L 99.952 29 L 101.21 23.955 L 109.999 23.955 L 109.729 25.039 L 114.061 25.039 C 115.387 25.039 116.54 24.864 117.521 24.515 C 117.948 24.363 118.342 24.176 118.704 23.955 L 129 23.955 C 128.49 24.906 127.887 25.779 127.191 26.574 Z M 125.347 43.426 L 126.71 37.961 L 152.065 37.961 L 150.457 44.41 L 125.102 44.41 L 125.347 43.426 L 125.638 44.41 L 116.05 44.41 L 114.213 37.961 L 123.732 37.961 Z M 134.168 8.046 L 159.523 8.046 L 157.744 15.184 L 141.178 15.184 L 139.48 21.994 L 130.691 21.994 Z M 112.504 31.963 L 108.002 31.963 L 106.996 36 L 98.207 36 L 99.463 30.961 L 121.663 30.961 L 123.152 36 L 113.654 36 Z M 56.291 23.955 L 55.033 29 L 46.368 29 L 47.626 23.955 Z M 54.544 30.961 L 53.288 36 L 44.623 36 L 45.879 30.961 Z M 127.199 36 L 128.455 30.961 L 137.244 30.961 L 135.987 36 Z M 128.944 29 L 130.202 23.955 L 154.261 23.955 L 153.003 29 Z" style="fill: rgb(51, 51, 51);"/>
  <path d="M 188.795 19.736 L 185.933 19.736 Q 185.553 17.834 184.566 16.15 Q 183.579 14.466 182.048 13.144 Q 180.518 11.822 178.544 11.07 Q 176.57 10.318 174.234 10.318 Q 170.648 10.318 167.668 12.211 Q 164.689 14.104 162.905 17.753 Q 161.121 21.402 161.121 26.691 Q 161.121 32.015 162.905 35.664 Q 164.689 39.314 167.668 41.188 Q 170.648 43.063 174.234 43.063 Q 176.57 43.063 178.544 42.311 Q 180.518 41.56 182.048 40.246 Q 183.579 38.933 184.566 37.24 Q 185.553 35.547 185.933 33.645 L 188.795 33.645 Q 188.378 36.054 187.192 38.227 Q 186.006 40.4 184.122 42.103 Q 182.239 43.805 179.757 44.774 Q 177.276 45.743 174.234 45.743 Q 169.579 45.743 166.002 43.389 Q 162.425 41.034 160.397 36.751 Q 158.369 32.468 158.369 26.691 Q 158.369 20.913 160.397 16.63 Q 162.425 12.347 166.002 9.992 Q 169.579 7.638 174.234 7.638 Q 177.276 7.638 179.757 8.607 Q 182.239 9.576 184.122 11.269 Q 186.006 12.963 187.192 15.136 Q 188.378 17.309 188.795 19.736 Z M 190.322 45.236 L 190.322 8.145 L 202.022 8.145 Q 205.753 8.145 208.352 9.549 Q 210.95 10.952 212.3 13.424 Q 213.649 15.897 213.649 19.12 Q 213.649 22.344 212.3 24.789 Q 210.95 27.234 208.361 28.61 Q 205.771 29.987 202.058 29.987 L 191.844 29.987 L 191.844 27.379 L 201.986 27.379 Q 204.865 27.379 206.839 26.365 Q 208.813 25.35 209.837 23.503 Q 210.86 21.656 210.86 19.12 Q 210.86 16.585 209.837 14.692 Q 208.813 12.8 206.83 11.758 Q 204.847 10.717 201.949 10.717 L 193.148 10.717 L 193.148 45.236 Z M 206.115 28.465 L 215.243 45.236 L 211.983 45.236 L 202.927 28.465 Z M 214.819 45.236 L 211.849 45.236 L 225.287 8.145 L 228.402 8.145 L 241.84 45.236 L 238.87 45.236 L 226.953 11.803 L 226.736 11.803 Z M 217.789 31.146 L 235.9 31.146 L 235.9 33.718 L 217.789 33.718 Z M 241.67 45.236 L 241.67 8.145 L 262.751 8.145 L 262.751 10.717 L 244.495 10.717 L 244.495 25.387 L 261.048 25.387 L 261.048 27.958 L 244.495 27.958 L 244.495 45.236 Z M 262.396 10.717 L 262.396 8.145 L 288.837 8.145 L 288.837 10.717 L 277.029 10.717 L 277.029 45.236 L 274.204 45.236 L 274.204 10.717 Z" transform="matrix(0.998892068862915, 0, 0, 1, 0.17177101969719288, 0)" style="fill: rgb(51, 51, 51);"/>
</svg>