<?xml version="1.0" encoding="utf-8"?>
<svg viewBox="0 0 285 52" xmlns="http://www.w3.org/2000/svg">
  <path d="M 29.581 19.073 C 29.613 18.869 29.634 18.672 29.643 18.482 L 38.125 18.482 C 38.087 18.677 38.045 18.874 37.997 19.073 Z M 28.769 16.028 C 28.021 15.3 26.789 14.936 25.073 14.936 C 23.936 14.936 22.952 15.084 22.121 15.38 C 21.33 15.661 20.686 16.042 20.189 16.521 L 10.709 16.521 C 11.307 15.258 12.114 14.103 13.131 13.054 C 14.772 11.361 16.788 10.042 19.178 9.095 C 21.569 8.148 24.143 7.674 26.901 7.674 C 29.718 7.674 32.047 8.151 33.887 9.104 C 35.529 9.954 36.725 11.109 37.475 12.567 L 38.571 8.171 L 69.307 8.171 L 67.828 14.1 C 69.609 12.32 71.591 10.9 73.775 9.84 C 76.751 8.396 79.873 7.674 83.14 7.674 C 86.395 7.674 89.154 8.396 91.415 9.84 C 93.677 11.285 95.231 13.398 96.076 16.179 C 96.11 16.292 96.143 16.406 96.174 16.521 L 85.25 16.521 C 84.229 15.76 82.885 15.38 81.219 15.38 C 79.563 15.38 78.033 15.76 76.627 16.521 L 65.703 16.521 C 65.791 16.406 65.881 16.292 65.971 16.179 C 66.209 15.881 66.452 15.591 66.699 15.309 L 56.501 15.309 L 56.199 16.521 L 47.534 16.521 L 47.836 15.309 L 38.29 15.309 C 38.333 15.702 38.351 16.106 38.342 16.521 L 29.174 16.521 C 29.06 16.344 28.925 16.18 28.769 16.028 Z M 19.057 19.801 C 19.196 20.216 19.461 20.58 19.85 20.893 C 20.239 21.207 20.736 21.482 21.34 21.719 C 21.943 21.956 22.637 22.163 23.422 22.34 L 26.37 23.051 C 28.072 23.442 29.531 23.962 30.748 24.613 C 30.985 24.74 31.212 24.871 31.429 25.007 L 10.505 25.007 C 9.438 23.452 9.218 21.439 9.845 18.967 C 9.885 18.804 9.928 18.642 9.973 18.482 L 19.054 18.482 C 18.927 18.978 18.928 19.417 19.057 19.801 Z M 35.013 30.046 C 35.059 30.326 35.089 30.613 35.105 30.909 L 24.044 30.909 C 23.28 30.554 22.283 30.225 21.052 29.922 L 17.474 29.034 C 15.475 28.548 13.83 27.859 12.539 26.968 L 33.671 26.968 C 34.374 27.861 34.822 28.887 35.013 30.046 Z M 34.776 33.988 C 34.548 34.885 34.245 35.732 33.869 36.529 L 23.925 36.529 C 24.203 36.346 24.457 36.144 24.687 35.923 C 25.278 35.355 25.672 34.704 25.867 33.97 C 25.96 33.57 25.976 33.204 25.916 32.87 L 34.996 32.87 C 34.941 33.233 34.868 33.606 34.776 33.988 Z M 31.561 39.901 C 30.003 41.546 28.041 42.807 25.674 43.683 C 23.307 44.559 20.608 44.997 17.578 44.997 C 14.536 44.997 11.998 44.541 9.964 43.629 C 7.931 42.718 6.518 41.333 5.727 39.475 C 5.593 39.161 5.48 38.832 5.388 38.49 L 32.722 38.49 C 32.371 38.984 31.984 39.455 31.561 39.901 Z M 14.176 35.355 C 14.387 35.811 14.685 36.202 15.071 36.529 L 5.096 36.529 C 5.047 35.421 5.165 34.202 5.449 32.87 L 13.894 32.87 C 13.767 33.846 13.861 34.675 14.176 35.355 Z M 96.652 19.946 L 97.017 18.482 L 105.806 18.482 L 104.179 25.007 L 87.161 25.007 C 87.502 23.218 87.567 21.666 87.357 20.352 C 87.246 19.657 87.064 19.033 86.812 18.482 L 96.55 18.482 C 96.605 18.956 96.639 19.444 96.652 19.946 Z M 99.588 8.171 L 114.609 8.171 C 117.332 8.171 119.563 8.659 121.302 9.636 C 123.041 10.613 124.223 12.01 124.847 13.827 C 124.959 14.152 125.051 14.489 125.122 14.835 L 126.784 8.171 L 152.139 8.171 L 150.36 15.309 L 133.794 15.309 L 133.492 16.521 L 115.144 16.521 C 114.872 16.239 114.532 16.003 114.124 15.815 C 113.317 15.442 112.257 15.256 110.943 15.256 L 106.61 15.256 L 106.295 16.521 L 97.506 16.521 Z M 131.934 22.767 L 147.204 22.767 L 146.645 25.007 L 110.494 25.007 C 111.009 24.92 111.488 24.798 111.932 24.64 C 112.913 24.291 113.724 23.758 114.364 23.042 C 115.004 22.326 115.464 21.406 115.745 20.281 C 115.911 19.614 115.979 19.014 115.949 18.482 L 133.003 18.482 Z M 145.42 29.922 L 130.15 29.922 L 129.904 30.909 L 121.115 30.909 L 122.098 26.968 L 146.157 26.968 Z M 143.073 44.535 L 117.718 44.535 L 118.785 40.257 L 120.049 44.535 L 110.461 44.535 L 108.739 38.49 L 118.262 38.49 L 118.785 40.257 L 119.225 38.49 L 144.58 38.49 Z M 99.31 44.535 L 90.521 44.535 L 92.028 38.49 L 100.817 38.49 Z M 91.003 36.527 C 91.002 36.528 91.002 36.528 91.001 36.529 L 79.648 36.529 C 79.959 36.392 80.264 36.238 80.562 36.066 C 81.863 35.316 83.012 34.251 84.009 32.87 L 93.399 32.87 C 92.701 34.188 91.902 35.407 91.003 36.527 Z M 83.181 42.866 C 80.199 44.31 77.081 45.032 73.826 45.032 C 70.559 45.032 67.798 44.304 65.545 42.848 C 63.865 41.762 62.578 40.31 61.683 38.49 L 89.256 38.49 C 87.442 40.325 85.417 41.783 83.181 42.866 Z M 60.905 36.501 C 60.568 35.388 60.378 34.178 60.336 32.87 L 69.707 32.87 C 70.016 34.251 70.636 35.316 71.569 36.066 C 71.783 36.238 72.011 36.392 72.255 36.529 L 60.914 36.529 C 60.911 36.52 60.908 36.51 60.905 36.501 Z M 49.214 44.535 L 40.549 44.535 L 42.056 38.49 L 50.721 38.49 Z M 72.602 20.352 C 71.736 21.666 71.027 23.218 70.476 25.007 L 61.501 25.007 C 62.212 22.594 63.163 20.419 64.353 18.482 L 74.081 18.482 C 73.553 19.033 73.06 19.657 72.602 20.352 Z M 115.958 30.694 L 116.022 30.909 L 85.204 30.909 C 85.801 29.743 86.301 28.429 86.702 26.968 L 121.361 26.968 C 119.876 28.583 118.075 29.825 115.958 30.694 Z M 129.415 32.87 L 128.503 36.529 L 119.714 36.529 L 120.626 32.87 Z M 108.18 36.529 L 107.138 32.87 L 116.601 32.87 L 117.683 36.529 Z M 102.218 32.87 L 101.306 36.529 L 92.517 36.529 L 93.43 32.87 Z M 60.378 30.909 C 60.467 29.671 60.67 28.358 60.988 26.968 L 69.956 26.968 C 69.63 28.429 69.474 29.743 69.49 30.909 Z M 55.71 18.482 L 54.083 25.007 L 45.418 25.007 L 47.045 18.482 Z M 53.594 26.968 L 52.611 30.909 L 43.946 30.909 L 44.929 26.968 Z M 52.122 32.87 L 51.21 36.529 L 42.545 36.529 L 43.457 32.87 Z" style="fill: rgb(51, 51, 51); text-transform: capitalize;" transform="matrix(1, 0, 0, 1, -1.7763568394002505e-15, 0)"/>
  <path d="M 180.839 20.119 L 178.566 20.119 Q 178.211 18.272 177.234 16.541 Q 176.258 14.81 174.722 13.416 Q 173.186 12.022 171.162 11.206 Q 169.138 10.389 166.687 10.389 Q 163.101 10.389 160.091 12.298 Q 157.081 14.206 155.279 17.9 Q 153.477 21.593 153.477 26.937 Q 153.477 32.317 155.279 36.01 Q 157.081 39.704 160.091 41.594 Q 163.101 43.485 166.687 43.485 Q 169.138 43.485 171.162 42.678 Q 173.186 41.87 174.722 40.476 Q 176.258 39.082 177.234 37.342 Q 178.211 35.602 178.566 33.755 L 180.839 33.755 Q 180.448 35.957 179.338 38.07 Q 178.228 40.183 176.426 41.896 Q 174.624 43.61 172.183 44.613 Q 169.741 45.616 166.687 45.616 Q 162.142 45.616 158.679 43.299 Q 155.217 40.982 153.255 36.774 Q 151.293 32.566 151.293 26.937 Q 151.293 21.309 153.255 17.101 Q 155.217 12.892 158.679 10.575 Q 162.142 8.258 166.687 8.258 Q 169.741 8.258 172.183 9.261 Q 174.624 10.265 176.426 11.96 Q 178.228 13.656 179.338 15.769 Q 180.448 17.882 180.839 20.119 Z M 182.959 45.119 L 182.959 8.755 L 194.163 8.755 Q 197.608 8.755 200.094 10.105 Q 202.579 11.454 203.911 13.842 Q 205.243 16.231 205.243 19.391 Q 205.243 22.516 203.911 24.886 Q 202.579 27.257 200.102 28.588 Q 197.626 29.92 194.181 29.92 L 184.149 29.92 L 184.149 27.843 L 194.128 27.843 Q 196.933 27.843 198.922 26.795 Q 200.91 25.748 201.976 23.857 Q 203.041 21.966 203.041 19.391 Q 203.041 16.799 201.976 14.872 Q 200.91 12.946 198.913 11.88 Q 196.915 10.815 194.11 10.815 L 185.179 10.815 L 185.179 45.119 Z M 197.892 28.642 L 206.841 45.119 L 204.284 45.119 L 195.388 28.642 Z M 206.309 45.119 L 203.965 45.119 L 217.086 8.755 L 219.643 8.755 L 232.765 45.119 L 230.421 45.119 L 218.454 11.614 L 218.276 11.614 Z M 209.629 31.429 L 227.101 31.429 L 227.101 33.489 L 209.629 33.489 Z M 233.128 45.119 L 233.128 8.755 L 253.422 8.755 L 253.422 10.815 L 235.347 10.815 L 235.347 25.89 L 251.736 25.89 L 251.736 27.949 L 235.347 27.949 L 235.347 45.119 Z M 253.6 10.815 L 253.6 8.755 L 279.079 8.755 L 279.079 10.815 L 267.449 10.815 L 267.449 45.119 L 265.23 45.119 L 265.23 10.815 Z" style="fill: rgb(51, 51, 51);" transform="matrix(1, 0, 0, 1, -1.7763568394002505e-15, 0)"/>
</svg>