<svg version="1.1" id="Layer_1" xmlns="http://www.w3.org/2000/svg" xmlns:xlink="http://www.w3.org/1999/xlink" x="0px" y="0px" viewBox="0 0 500 500" style="width: 140px;" xml:space="preserve" data-imageid="astronaut-52" imageName="Astronaut" class="illustrations_image">
<style type="text/css">
	.st0_astronaut-52{fill:#68E1FD;}
	.st1_astronaut-52{fill:#093F68;}
	.st2_astronaut-52{fill:#FFFFFF;}
	.st3_astronaut-52{fill:#FFBC0E;}
	.st4_astronaut-52{fill:none;}
	.st5_astronaut-52{fill:#DFEAEF;}
	.st6_astronaut-52{fill:#F56132;}
</style>
<g id="character_astronaut-52">
	<path class="st0_astronaut-52 targetColor" d="M196.1,120.1h1.5c6.6,0,12,5.4,12,12v10.7c0,6.6-5.4,12-12,12h-1.5c-6.6,0-12-5.4-12-12v-10.7&#10;&#9;&#9;C184.1,125.5,189.4,120.1,196.1,120.1z" style="fill: rgb(104, 225, 253);"/>
	<path class="st1_astronaut-52" d="M196.8,156.6c-8.1,0-14.6-6.5-14.6-14.6v-9.2c0.2-8,6.9-14.4,15-14.2c7.8,0.2,14,6.4,14.2,14.2v9.2&#10;&#9;&#9;C211.4,150.1,204.9,156.6,196.8,156.6z M196.8,121.9c-6,0-10.9,4.9-10.9,10.9v9.2c0.2,6,5.2,10.7,11.2,10.6&#10;&#9;&#9;c5.8-0.2,10.4-4.8,10.6-10.6v-9.2C207.7,126.8,202.8,121.9,196.8,121.9z"/>
	<path class="st0_astronaut-52 targetColor" d="M314.7,120.1h1.4c6.6,0,12,5.4,12,12v10.7c0,6.6-5.4,12-12,12h-1.4c-6.6,0-12-5.4-12-12v-10.7&#10;&#9;&#9;C302.7,125.5,308,120.1,314.7,120.1z" style="fill: rgb(104, 225, 253);"/>
	<path class="st1_astronaut-52" d="M315.4,156.6c-8.1,0-14.6-6.5-14.6-14.6v-9.2c0.2-8,6.9-14.4,15-14.2c7.8,0.2,14,6.4,14.2,14.2v9.2&#10;&#9;&#9;C330,150.1,323.5,156.6,315.4,156.6z M315.4,121.9c-6,0-10.9,4.9-10.9,10.9v9.2c0.2,6,5.2,10.7,11.2,10.6&#10;&#9;&#9;c5.8-0.2,10.4-4.8,10.6-10.6v-9.2C326.3,126.8,321.4,121.9,315.4,121.9z"/>
	<path class="st2_astronaut-52" d="M207.2,176.4h97c11.8,0,21.5,9.6,21.5,21.4v97c0,11.8-9.6,21.5-21.5,21.5h-97c-11.8,0-21.4-9.6-21.4-21.5v-97&#10;&#9;&#9;C185.8,186,195.4,176.4,207.2,176.4z"/>
	<path class="st1_astronaut-52" d="M304.6,318.1h-97.8c-12.6,0-22.9-10.3-22.9-22.9v-97.8c0-12.6,10.3-22.9,22.9-22.9h97.8&#10;&#9;&#9;c12.6,0,22.9,10.3,22.9,22.9v97.8C327.5,307.9,317.2,318.1,304.6,318.1z M206.8,178.2c-10.6,0-19.2,8.6-19.2,19.2v97.8&#10;&#9;&#9;c0,10.6,8.6,19.2,19.2,19.2h97.8c10.6,0,19.2-8.6,19.2-19.2v-97.8c0-10.6-8.6-19.2-19.2-19.2L206.8,178.2z"/>
	<path class="st0_astronaut-52 targetColor" d="M339.1,228.9c-17.3-23.8-30.2-31.4-43.6-33.5c-2.6-0.4-10-1.2-11.2-1.2h-52c-14.9,0-23.8,3.6-33.9,13.4&#10;&#9;&#9;c-15.3,14.8-25.7,45.5-31.8,48.3c-1.2,0-2.3-0.5-3.1-1.5c-6.1-6.6-7.8-26.5-7-37.9c0.7-8.9-6-16.7-14.9-17.4s-16.7,6-17.4,14.9&#10;&#9;&#9;c-0.5,7-2.3,43.1,15.5,62.3c7,7.7,17,12,27.4,11.9c15.3,0,28.3-10.9,39.7-33.1v146h-5c-5.5-0.1-10.1,4.2-10.5,9.7&#10;&#9;&#9;c-0.2,5.5,4.1,10.1,9.7,10.3c0.1,0,0.2,0,0.3,0h45.6V309.9c0.2-4.8,4.2-8.5,9-8.4c4.6,0.2,8.2,3.8,8.4,8.4v111.3h45.6&#10;&#9;&#9;c5.5,0,10-4.5,10-10c0-0.1,0-0.2,0-0.3c-0.3-5.5-4.9-9.8-10.5-9.7h-5V238.6c3.2,2.8,6,6,8.5,9.4c4.6,6.3,11.7,31.8,14.1,69.7&#10;&#9;&#9;c-2.8,5.3-6,12.8-4.1,16.5c1.5,3,4.7,1.5,7.6-0.8c3,4.1,7.9,6.6,13,6.6h0.8c8.9-0.4,15.9-8,15.5-16.9c0,0,0,0,0,0&#10;&#9;&#9;C359.2,311.3,355.7,251.8,339.1,228.9z" style="fill: rgb(104, 225, 253);"/>
	<path class="st1_astronaut-52" d="M309.8,423h-45.6c-1,0-1.8-0.8-1.8-1.8V309.9c0-3.8-3.1-6.8-6.8-6.8s-6.8,3.1-6.8,6.8v111.3&#10;&#9;&#9;c0,1-0.8,1.8-1.8,1.8c0,0,0,0,0,0h-45.6c-6.5,0-11.9-5.3-11.9-11.8c0-0.1,0-0.3,0-0.4c0.4-6.5,5.8-11.6,12.3-11.5h3.2V262.4&#10;&#9;&#9;C194,281,181.6,290.1,167,290.1c-10.9,0.1-21.3-4.4-28.7-12.5c-18.3-19.8-16.5-56.6-16-63.7c0.8-9.9,9.4-17.4,19.4-16.6&#10;&#9;&#9;c9.9,0.8,17.4,9.4,16.6,19.4c-0.8,11.5,1,30.5,6.5,36.5c0.3,0.4,0.8,0.7,1.4,0.8c2.2-1.6,5.8-8.5,9.4-15.1&#10;&#9;&#9;c5.7-10.7,12.8-24.1,21.6-32.6c10.5-10.1,20-13.9,35.2-13.9h52c1.4,0,9,0.8,11.5,1.2c16,2.6,29,12.5,44.8,34.3l0,0&#10;&#9;&#9;c16.9,23.3,20.5,83.3,21,95.1c0.5,9.9-7.1,18.4-17,18.9c-5.5,0.3-10.7-1.9-14.4-6c-2.3,1.5-4.2,2-5.8,1.6c-1.4-0.3-2.5-1.3-3.1-2.6&#10;&#9;&#9;c-1.7-3.4-0.4-9.4,3.9-17.7c-2.4-37.3-9.5-62.3-13.7-68.2c-1.6-2.2-3.3-4.2-5.2-6.2v156.4h3.2c6.5-0.1,11.9,5,12.3,11.5&#10;&#9;&#9;c0.2,6.6-5,12-11.5,12.2C310.1,423,310,423.1,309.8,423L309.8,423z M266,419.4h43.8c4.5,0,8.2-3.7,8.2-8.2c0-0.1,0-0.2,0-0.3&#10;&#9;&#9;c-0.3-4.5-4.1-8-8.6-7.9h-5c-1,0-1.8-0.8-1.8-1.8V238.6c0-1,0.8-1.8,1.8-1.8c0.5,0,0.9,0.2,1.3,0.5c3.3,2.9,6.2,6.2,8.8,9.7&#10;&#9;&#9;c5.3,7.3,12.2,34.5,14.5,70.6c0,0.3,0,0.7-0.2,1c-3.7,7-5.2,12.5-4.1,14.8c0.3,0.5,0.5,0.6,0.6,0.6c0.6,0.1,2-0.3,4.2-2&#10;&#9;&#9;c0.4-0.3,0.9-0.4,1.4-0.4c0.5,0.1,0.9,0.3,1.2,0.7c4.7,6.4,13.7,7.8,20.1,3.1c3.9-2.8,6.1-7.5,5.9-12.3c-0.5-11.6-4-70.7-20.3-93.1&#10;&#9;&#9;l0,0c-18.8-25.9-31.5-31-42.4-32.8c-2.7-0.4-9.9-1.1-10.9-1.1h-52c-14.3,0-22.8,3.4-32.6,12.8c-8.4,8.1-15.3,21.2-20.9,31.7&#10;&#9;&#9;c-5.4,10.2-8.4,15.6-11.5,17c-0.3,0.1-0.6,0.2-0.9,0.2c-1.7,0-3.3-0.8-4.4-2.1c-6.6-7.1-8.3-27.2-7.5-39.2&#10;&#9;&#9;c0.6-7.9-5.3-14.8-13.2-15.5c0,0,0,0,0,0c-7.9-0.6-14.8,5.3-15.4,13.2c-0.5,6.9-2.3,42.3,15,60.9c6.7,7.3,16.1,11.4,26,11.3&#10;&#9;&#9;c14.6,0,27-10.5,38.1-32.1c0.4-0.8,1.2-1.2,2.1-0.9c0.8,0.2,1.4,0.9,1.4,1.8v146c0,1-0.8,1.8-1.8,1.8h-5c-4.5-0.1-8.3,3.4-8.6,7.9&#10;&#9;&#9;c-0.1,4.5,3.4,8.3,7.9,8.5c0.1,0,0.2,0,0.3,0H245V309.9c0.3-5.8,5.2-10.3,11-10c5.4,0.2,9.8,4.6,10,10V419.4z"/>
	<path class="st0_astronaut-52 targetColor" d="M313.8,136.5c-0.4,31.9-26.6,57.4-58.5,57c-31.3-0.4-56.5-25.7-57-57c0-2.8,0.2-5.6,0.6-8.4&#10;&#9;&#9;c4.6-31.5,33.9-53.4,65.5-48.8c25.3,3.7,45.1,23.5,48.8,48.8C313.6,130.9,313.8,133.7,313.8,136.5z" style="fill: rgb(104, 225, 253);"/>
	<path class="st1_astronaut-52" d="M256.1,196.1c-32.9,0-59.5-26.7-59.5-59.6c0-2.9,0.2-5.8,0.6-8.6c4.8-32.5,35-55.1,67.5-50.3&#10;&#9;&#9;c26.1,3.8,46.5,24.3,50.3,50.3c0.4,2.9,0.6,5.7,0.6,8.6C315.6,169.4,289,196,256.1,196.1z M256.1,80.6&#10;&#9;&#9;c-27.7,0.1-51.2,20.4-55.3,47.8c-0.4,2.7-0.6,5.4-0.6,8.1c0.4,30.9,25.8,55.5,56.6,55.1c30.3-0.4,54.7-24.9,55.1-55.1&#10;&#9;&#9;c0-2.7-0.2-5.4-0.6-8.1C307.3,101,283.8,80.7,256.1,80.6z"/>
	<path class="st2_astronaut-52" d="M313.8,136.5c-0.4,31.9-26.6,57.4-58.5,57c-31.3-0.4-56.5-25.7-57-57c0-2.8,0.2-5.6,0.6-8.4&#10;&#9;&#9;c13.9-12,34.3-19.6,57.1-19.6s43.2,7.6,57.1,19.6C313.6,130.9,313.8,133.7,313.8,136.5z"/>
	<path class="st1_astronaut-52" d="M256.1,196.1c-32.9,0-59.5-26.7-59.5-59.6c0-2.9,0.2-5.8,0.6-8.6c0.1-0.4,0.3-0.8,0.6-1.1&#10;&#9;&#9;c14.8-12.7,36-20,58.3-20s43.6,7.3,58.3,20c0.3,0.3,0.6,0.7,0.6,1.1c0.4,2.8,0.6,5.7,0.6,8.6C315.6,169.4,289,196,256.1,196.1z&#10;&#9;&#9; M200.7,129.1c-0.3,2.5-0.5,4.9-0.5,7.4c0,30.9,25,55.9,55.8,55.9s55.9-25,55.9-55.8c0-2.5-0.2-5-0.5-7.5&#10;&#9;&#9;c-14.1-11.9-34.2-18.7-55.4-18.7S214.8,117.2,200.7,129.1L200.7,129.1z"/>
	<path class="st1_astronaut-52" d="M304.4,291.5h-97.6c-1,0-1.8-0.8-1.8-1.8c0-1,0.8-1.8,1.8-1.8h97.6c1,0,1.8,0.8,1.8,1.8&#10;&#9;&#9;C306.2,290.7,305.4,291.5,304.4,291.5z"/>
	<path class="st1_astronaut-52" d="M246.9,388.8h-40.1c-1,0-1.8-0.8-1.8-1.8c0-1,0.8-1.8,1.8-1.8h40.1c1,0,1.8,0.8,1.8,1.8&#10;&#9;&#9;C248.7,388,247.9,388.8,246.9,388.8C246.9,388.8,246.9,388.8,246.9,388.8z"/>
	<path class="st1_astronaut-52" d="M304.4,388.8h-40.1c-1,0-1.8-0.8-1.8-1.8c0-1,0.8-1.8,1.8-1.8h40.1c1,0,1.8,0.8,1.8,1.8&#10;&#9;&#9;C306.2,388,305.4,388.8,304.4,388.8z"/>
	<path class="st1_astronaut-52" d="M304.4,356.7h-40.1c-1,0-1.8-0.8-1.8-1.8c0-1,0.8-1.8,1.8-1.8h40.1c1,0,1.8,0.8,1.8,1.8&#10;&#9;&#9;C306.2,355.8,305.4,356.7,304.4,356.7z"/>
	<path class="st1_astronaut-52" d="M246.9,356.7h-38.3c-1,0-1.8-0.8-1.8-1.8c0-1,0.8-1.8,1.8-1.8c0,0,0,0,0,0h38.3c1,0,1.8,0.8,1.8,1.8&#10;&#9;&#9;C248.7,355.8,247.9,356.7,246.9,356.7C246.9,356.7,246.9,356.7,246.9,356.7z"/>
	<path class="st0_astronaut-52 targetColor" d="M225.7,216.2h56.8c3.3,0,5.9,2.7,5.9,5.9v44c0,3.3-2.7,5.9-5.9,5.9h-56.8c-3.3,0-5.9-2.7-5.9-5.9v-44&#10;&#9;&#9;C219.8,218.8,222.5,216.2,225.7,216.2z" style="fill: rgb(104, 225, 253);"/>
	<path class="st1_astronaut-52" d="M277.6,273.9h-46.9c-7,0-12.7-5.7-12.7-12.8v-34.1c0-7,5.7-12.7,12.8-12.8h46.9c7,0,12.7,5.7,12.8,12.8v34.1&#10;&#9;&#9;C290.4,268.2,284.7,273.9,277.6,273.9z M230.7,218c-5,0-9.1,4.1-9.1,9.1v34.1c0,5,4.1,9.1,9.1,9.1h46.9c5,0,9.1-4.1,9.1-9.1v-34&#10;&#9;&#9;c0-5-4.1-9.1-9.1-9.1L230.7,218z"/>
	<path class="st1_astronaut-52" d="M276.1,227.8h-20.5c-1,0-1.8-0.8-1.8-1.8c0-1,0.8-1.8,1.8-1.8h20.5c1,0,1.8,0.8,1.8,1.8&#10;&#9;&#9;C277.9,227,277.1,227.8,276.1,227.8z"/>
	<circle class="st3_astronaut-52" cx="235" cy="228.3" r="4.6"/>
	<path class="st1_astronaut-52" d="M235,234.7c-3.5,0-6.4-2.9-6.4-6.4s2.9-6.4,6.4-6.4s6.4,2.9,6.4,6.4v0C241.4,231.8,238.5,234.7,235,234.7z&#10;&#9;&#9; M235,225.5c-1.5,0-2.7,1.2-2.7,2.7s1.2,2.7,2.7,2.7s2.7-1.2,2.7-2.7C237.7,226.8,236.5,225.5,235,225.5L235,225.5L235,225.5z"/>
	<path class="st1_astronaut-52" d="M304.4,240.4c-1,0-1.8-0.8-1.8-1.8v-19.4c0-1,0.8-1.8,1.8-1.8c1,0,1.8,0.8,1.8,1.8c0,0,0,0,0,0v19.4&#10;&#9;&#9;C306.2,239.6,305.4,240.4,304.4,240.4z"/>
	<line class="st4_astronaut-52" x1="325.7" y1="301.8" x2="357.5" y2="295.7"/>
	<path class="st1_astronaut-52" d="M325.7,303.7c-1,0-1.8-0.8-1.9-1.8c0-0.9,0.6-1.7,1.5-1.8l31.9-6.1c1-0.2,2,0.4,2.2,1.4s-0.4,2-1.4,2.2&#10;&#9;&#9;c-0.1,0-0.1,0-0.2,0l-31.9,6.1C325.9,303.6,325.8,303.7,325.7,303.7z"/>
	<line class="st4_astronaut-52" x1="126.5" y1="248.9" x2="156.4" y2="236.8"/>
	<path class="st1_astronaut-52" d="M126.5,250.7c-1,0-1.8-0.8-1.9-1.8c0-0.8,0.5-1.4,1.2-1.7l29.8-12.1c0.9-0.4,2,0.1,2.4,1c0.4,0.9-0.1,2-1,2.4&#10;&#9;&#9;l0,0l-29.8,12.1C127,250.7,126.8,250.7,126.5,250.7z"/>
	<path class="st1_astronaut-52" d="M230.4,156.6c-1,0-1.8-0.8-1.8-1.8c0-0.6,0.3-1.1,0.7-1.4l35.4-28.2c0.8-0.6,2-0.5,2.6,0.3&#10;&#9;&#9;c0.6,0.8,0.5,2-0.3,2.6l-35.4,28.2C231.3,156.5,230.9,156.6,230.4,156.6z"/>
	<path class="st1_astronaut-52" d="M246.9,177.6c-1,0-1.8-0.8-1.8-1.8c0-0.6,0.3-1.1,0.7-1.4l37.4-29.6c0.8-0.6,1.9-0.5,2.6,0.3&#10;&#9;&#9;c0.6,0.8,0.5,1.9-0.3,2.6c0,0,0,0,0,0L248,177.2C247.7,177.4,247.3,177.6,246.9,177.6z"/>
</g>
<g id="lines_astronaut-52">
	<path class="st5_astronaut-52" d="M386.4,232.9c-1,0-1.8-0.8-1.8-1.8c0-0.2,0-0.4,0.1-0.6c3.5-10.2-7.1-25.8-7.2-25.9c-0.6-0.8-0.4-2,0.5-2.6&#10;&#9;&#9;c0.4-0.3,1-0.4,1.5-0.3c13.5,3.7,26.7-6.5,26.8-6.6c0.8-0.6,1.9-0.5,2.6,0.3c0.4,0.5,0.5,1.1,0.3,1.7c-3.4,13.5,5.5,24.4,5.6,24.5&#10;&#9;&#9;c0.5,0.6,0.6,1.4,0.2,2.1c-0.4,0.7-1.1,1-1.9,0.9c-11.9-1.7-25.4,8-25.6,8.1C387.1,232.8,386.7,232.9,386.4,232.9z M382.6,206&#10;&#9;&#9;c2.7,4.8,6.8,13.4,6.3,21.2c4.5-2.6,12.5-6.5,20.7-6.6c-3.7-6-5.4-13.1-4.9-20.1C400.2,203.1,391.9,207,382.6,206z"/>
	<path class="st5_astronaut-52" d="M400.7,356.6c-1,0-1.8-0.8-1.8-1.8c0-0.2,0-0.4,0.1-0.6c1.7-4.9-2.6-12.8-4.4-15.4c-0.6-0.8-0.3-2,0.5-2.6&#10;&#9;&#9;c0.4-0.3,1-0.4,1.5-0.3c8,2.2,15.9-3.9,16-4c0.6-0.5,1.5-0.5,2.1-0.1c0.7,0.4,1,1.2,0.8,2c-2,8,3.3,14.5,3.3,14.5&#10;&#9;&#9;c0.7,0.8,0.5,1.9-0.2,2.6c-0.4,0.3-0.9,0.5-1.4,0.4c-7.1-1-15.2,4.8-15.3,4.9C401.5,356.5,401.1,356.6,400.7,356.6z M399.6,340.1&#10;&#9;&#9;c1.5,2.8,3.3,7,3.4,11.1c3.4-1.9,7.1-3.1,10.9-3.5c-1.8-3.2-2.7-6.9-2.6-10.6C407.7,339.1,403.7,340.1,399.6,340.1z"/>
	<path class="st5_astronaut-52" d="M94.4,325c-1,0-1.8-0.8-1.8-1.8c0-0.2,0-0.4,0.1-0.6c1.7-5-2.6-12.8-4.4-15.4c-0.6-0.8-0.4-2,0.5-2.6&#10;&#9;&#9;c0.4-0.3,1-0.4,1.5-0.3c8,2.2,15.9-3.9,16-4c0.8-0.6,2-0.5,2.6,0.3c0.3,0.4,0.5,1,0.3,1.6c-2,8,3.3,14.5,3.3,14.5&#10;&#9;&#9;c0.7,0.8,0.5,1.9-0.2,2.6c-0.4,0.3-0.9,0.5-1.4,0.4c-7-1-15.2,4.8-15.3,4.9C95.2,324.9,94.8,325,94.4,325z M93.3,308.5&#10;&#9;&#9;c1.5,2.8,3.3,7,3.4,11.1c3.4-1.9,7.1-3.1,10.9-3.5c-1.8-3.2-2.6-6.9-2.6-10.5C101.4,307.5,97.4,308.5,93.3,308.5L93.3,308.5z"/>
</g>
<g id="flag_astronaut-52">
	<polygon class="st6_astronaut-52" points="134.5,108.6 82.7,160.9 139.4,159.5 &#9;"/>
	<path class="st1_astronaut-52" d="M82.7,162.7c-1,0-1.8-0.8-1.8-1.8c0-0.5,0.2-1,0.5-1.3l51.8-52.3c0.7-0.7,1.9-0.7,2.6,0&#10;&#9;&#9;c0.3,0.3,0.5,0.7,0.5,1.1l4.9,51c0.1,0.5-0.1,1-0.4,1.4c-0.3,0.4-0.8,0.6-1.3,0.6L82.7,162.7L82.7,162.7z M133.1,112.7L87.2,159&#10;&#9;&#9;l50.2-1.2L133.1,112.7z"/>
	<line class="st4_astronaut-52" x1="163.9" y1="417.5" x2="133.7" y2="100.5"/>
	<path class="st1_astronaut-52" d="M163.9,421.1c-1.9,0-3.5-1.4-3.7-3.3l-30.2-316.9c-0.2-2,1.3-3.8,3.3-4c2-0.2,3.8,1.3,4,3.3l30.2,316.9&#10;&#9;&#9;c0.2,2-1.3,3.8-3.3,4L163.9,421.1z"/>
	<path class="st0_astronaut-52 targetColor" d="M127.9,196.8h22.8c3.1,0,5.6,2.5,5.6,5.6v22.8c0,3.1-2.5,5.6-5.6,5.6h-22.8c-3.1,0-5.6-2.5-5.6-5.6v-22.8&#10;&#9;&#9;C122.4,199.3,124.9,196.8,127.9,196.8z" style="fill: rgb(104, 225, 253);"/>
	<path class="st1_astronaut-52" d="M146.1,232.6h-13.5c-6.7,0-12.1-5.4-12.1-12.1V207c0.1-6.6,5.5-12,12.1-12h13.5c6.6,0,12,5.4,12.1,12v13.5&#10;&#9;&#9;C158.2,227.2,152.8,232.6,146.1,232.6C146.1,232.6,146.1,232.6,146.1,232.6z M132.6,198.6c-4.6,0-8.4,3.8-8.4,8.4v13.5&#10;&#9;&#9;c0,4.6,3.8,8.4,8.4,8.4h13.5c4.6,0,8.4-3.8,8.4-8.4V207c0-4.6-3.8-8.4-8.4-8.4L132.6,198.6z"/>
	<path class="st0_astronaut-52 targetColor" d="M156.8,198.4h5c1.6,0,3,1.3,3,3v11.8c0,1.6-1.3,3-3,3h-5c-1.6,0-3-1.3-3-3v-11.8&#10;&#9;&#9;C153.8,199.7,155.1,198.4,156.8,198.4z" style="fill: rgb(104, 225, 253);"/>
	<path class="st1_astronaut-52" d="M159.3,218c-4,0-7.3-3.3-7.3-7.3v-6.8c0-4,3.3-7.3,7.3-7.3c4,0,7.3,3.3,7.3,7.3c0,0,0,0,0,0v6.8&#10;&#9;&#9;C166.6,214.7,163.3,218,159.3,218z M159.3,200.2c-2,0-3.6,1.6-3.6,3.6v6.8c0.1,2,1.8,3.5,3.8,3.4c1.9-0.1,3.3-1.6,3.4-3.4v-6.8&#10;&#9;&#9;C162.9,201.9,161.3,200.2,159.3,200.2L159.3,200.2z"/>
</g>
</svg>